<svg xmlns="http://www.w3.org/2000/svg" xmlns:xlink="http://www.w3.org/1999/xlink" viewBox="0 0 4297.05 4297.04"><defs><style>.cls-1{fill:url(#linear-gradient);}.cls-2{fill:url(#linear-gradient-2);}</style><linearGradient id="linear-gradient" x1="426.69" y1="831.89" x2="3465.16" y2="3870.36" gradientUnits="userSpaceOnUse"><stop offset="0" stop-color="#b179f1"/><stop offset="1" stop-color="#854cc7"/></linearGradient><linearGradient id="linear-gradient-2" x1="1185.5" y1="1185.5" x2="3111.55" y2="3111.55" xlink:href="#linear-gradient"/></defs><g id="Layer_2" data-name="Layer 2"><g id="Layer_1-2" data-name="Layer 1"><path class="cls-1" d="M2148.52,4297c-573.89,0-1113.43-223.48-1519.23-629.28S0,2722.41,0,2148.52,223.49,1035.09,629.29,629.29,1574.63,0,2148.52,0c106.06,0,192,86,192,192s-86,192-192,192c-972.91,0-1764.43,791.52-1764.43,1764.43S1175.61,3913,2148.52,3913c970.67,0,1762.2-789.65,1764.44-1760.26v-4.18c0-106.06,86-192,192-192s192.05,86,192.05,192v4.62c-1.32,573.28-225.4,1111.61-630.94,1516.27S2721.53,4297,2148.52,4297Z"/><path class="cls-2" d="M2148.52,786.6c-752.16,0-1361.92,609.76-1361.92,1361.92s609.76,1361.92,1361.92,1361.92,1361.92-609.75,1361.92-1361.92S2900.69,786.6,2148.52,786.6Zm0,1970c-335.82,0-608.06-272.23-608.06-608.06s272.24-608.06,608.06-608.06,608.07,272.24,608.07,608.06S2484.35,2756.58,2148.52,2756.58Z"/></g></g></svg>