<svg xmlns="http://www.w3.org/2000/svg" viewBox="0 0 37.86 37.86"><defs><style>.cls-1{fill:#3f88c8;}</style></defs><g id="Layer_2" data-name="Layer 2"><g id="Layer_1-2" data-name="Layer 1"><path class="cls-1" d="M27.22,18.91a8.29,8.29,0,1,1-8.31-8.27A8.35,8.35,0,0,1,27.22,18.91Z"/><path class="cls-1" d="M17.33,3.53c0-.65,0-1.31,0-2a1.6,1.6,0,0,1,3.2,0c0,1.31,0,2.61,0,3.92A1.58,1.58,0,0,1,19,7.1a1.61,1.61,0,0,1-1.62-1.61C17.31,4.84,17.33,4.19,17.33,3.53Z"/><path class="cls-1" d="M6.87,9.17c-.46-.46-.93-.91-1.38-1.39a1.6,1.6,0,0,1,0-2.22,1.58,1.58,0,0,1,2.28,0c.94.91,1.86,1.83,2.77,2.77a1.59,1.59,0,0,1,0,2.23,1.61,1.61,0,0,1-2.28,0C7.79,10.11,7.34,9.64,6.87,9.17Z"/><path class="cls-1" d="M3.56,20.53h-2A1.61,1.61,0,0,1,0,18.9a1.59,1.59,0,0,1,1.57-1.57c1.31,0,2.62,0,3.92,0a1.6,1.6,0,0,1,0,3.2h-2Z"/><path class="cls-1" d="M34.3,20.53c-.66,0-1.31,0-2,0a1.6,1.6,0,0,1,0-3.2c1.31,0,2.61,0,3.92,0a1.6,1.6,0,0,1,0,3.2h-2Z"/><path class="cls-1" d="M17.33,34.3c0-.63,0-1.26,0-1.89a1.6,1.6,0,1,1,3.2,0c0,1.31,0,2.62,0,3.92A1.58,1.58,0,0,1,19,37.86a1.6,1.6,0,0,1-1.62-1.6v-2Z"/><path class="cls-1" d="M30.93,5.09A1.64,1.64,0,0,1,32.61,6a1.44,1.44,0,0,1-.18,1.7c-1,1-2,2-3,3a1.51,1.51,0,0,1-2.1-.07,1.53,1.53,0,0,1-.16-2.16c.95-1,1.95-2,3-3A2.13,2.13,0,0,1,30.93,5.09Z"/><path class="cls-1" d="M6.93,32.77a1.62,1.62,0,0,1-1.7-1,1.42,1.42,0,0,1,.24-1.68c1-1,1.92-2,2.93-2.93a1.6,1.6,0,0,1,2.24,2.26c-1,1-1.93,2-2.93,2.93A2.32,2.32,0,0,1,6.93,32.77Z"/><path class="cls-1" d="M31,32.78a3,3,0,0,1-.92-.5c-.92-.85-1.8-1.75-2.68-2.66a1.61,1.61,0,1,1,2.24-2.3c.93.89,1.83,1.8,2.72,2.72a1.51,1.51,0,0,1,.34,1.74A1.66,1.66,0,0,1,31,32.78Z"/></g></g></svg>